<?xml version="1.0" encoding="UTF-8"?>
<svg id="Layer_2" data-name="Layer 2" xmlns="http://www.w3.org/2000/svg" viewBox="0 0 1000 1000">
  <defs>
    <style>
      .cls-1 {
        fill: none;
      }
    </style>
  </defs>
  <g id="Layer_1-2" data-name="Layer 1">
    <g>
      <rect class="cls-1" width="1000" height="1000"/>
      <g>
        <path d="M770.49,677.66c-16.32-.03-29.53-13.29-29.5-29.61.03-12.86,8.37-24.23,20.63-28.12,139.54-44.28,141.59-78.41,142.68-96.75,1.72-28.62-20.6-65.98-29.33-77.96-9.66-13.16-6.83-31.65,6.32-41.32,13.16-9.66,31.65-6.83,41.32,6.32,4.51,6.13,44,61.48,40.68,116.51-4.02,66.91-55.59,108.83-183.87,149.55-2.89.91-5.9,1.37-8.94,1.37Z"/>
        <path d="M370.01,781.98c-16.32.02-29.56-13.19-29.58-29.51-.01-9.04,4.12-17.59,11.21-23.2,60.58-47.96,101-91.01,127.83-128.01-14.88-7.14-30.33-18.58-38.66-36.75-7.72-16.84-11.56-44.9,14-82.92,36.56-54.36,73.61-66.94,87.84-69.83,19-3.97,37.83,7.44,43.09,26.12,3.8,12.93,12.23,55.47-13.74,119.21,35.41-.84,63.77-10.11,85.07-27.81,40.95-33.95,43.67-89.68,43.7-90.25,1.17-16.28,15.31-28.54,31.59-27.37,15.39,1.1,27.35,13.86,27.45,29.3-.1,3.32-3.14,81.95-64.37,133.27-38.66,32.41-90.4,46.16-154.14,41.05-30.14,46.78-77.97,100.92-153.01,160.34-5.2,4.12-11.65,6.37-18.29,6.37ZM530.5,483.53c-7.78,6.68-16.91,16.48-26.62,30.97-9.71,14.5-10.49,22.81-9.34,25.35,1.8,3.9,8.55,7.6,15.89,10.35,13.56-27.97,18.59-50.47,20.06-66.68Z"/>
        <path d="M347.99,623.21c-1.47,0-2.93-.11-4.39-.32-16.13-2.42-27.25-17.46-24.83-33.6,19.61-131.55,26.84-340.61,26.92-342.7.32-16.1,13.62-28.89,29.72-28.57.27,0,.54.01.81.03,16.3.55,29.07,14.21,28.52,30.51,0,0,0,.01,0,.02-.28,8.69-7.39,214.5-27.51,349.43-2.16,14.48-14.6,25.19-29.24,25.2Z"/>
        <path d="M66.08,781.98c-16.32.02-29.56-13.19-29.58-29.5-.01-9.47,4.52-18.38,12.18-23.94,163.16-118.63,170.51-269.76,170.74-276.15.61-16.25,14.27-29.33,30.51-28.5,16.26.5,29.04,14.06,28.58,30.32-.2,7.53-7.44,185.72-195.08,322.14-5.04,3.67-11.12,5.65-17.35,5.64Z"/>
        <path d="M567.32,720.09c-16.32.15-29.66-12.96-29.81-29.28-.14-16.1,12.63-29.35,28.72-29.8.46,0,47.03-1.95,112.8-16.21,15.99-3.26,31.6,7.07,34.86,23.07,3.2,15.71-6.72,31.11-22.35,34.7-71.24,15.42-121.02,17.41-123.09,17.5h-1.13Z"/>
      </g>
    </g>
  </g>
</svg>