<?xml version="1.0" encoding="UTF-8"?>
<svg id="Layer_2" data-name="Layer 2" xmlns="http://www.w3.org/2000/svg" viewBox="0 0 666.88 666.88">
  <g id="Layer_1-2" data-name="Layer 1">
    <g>
      <path d="M333.44,0c-90.56,0-101.91.38-137.48,2.01-35.49,1.62-59.73,7.26-80.94,15.5-21.93,8.52-40.52,19.92-59.06,38.46-18.54,18.54-29.94,37.13-38.46,59.06-8.24,21.21-13.88,45.45-15.5,80.94C.38,231.53,0,242.88,0,333.44s.38,101.91,2.01,137.48c1.62,35.49,7.26,59.73,15.5,80.94,8.52,21.93,19.92,40.52,38.46,59.06,18.54,18.54,37.13,29.94,59.06,38.46,21.21,8.24,45.45,13.88,80.94,15.5,35.57,1.62,46.92,2.01,137.48,2.01s101.91-.38,137.48-2.01c35.49-1.62,59.73-7.26,80.94-15.5,21.93-8.52,40.52-19.92,59.06-38.46,18.54-18.54,29.94-37.13,38.46-59.06,8.24-21.21,13.88-45.45,15.5-80.94,1.62-35.57,2.01-46.92,2.01-137.48s-.38-101.91-2.01-137.48c-1.62-35.49-7.26-59.73-15.5-80.94-8.52-21.93-19.92-40.52-38.46-59.06-18.54-18.54-37.13-29.94-59.06-38.46-21.21-8.24-45.45-13.88-80.94-15.5-35.57-1.62-46.92-2.01-137.48-2.01ZM333.44,60.08c89.03,0,99.58.34,134.74,1.94,32.51,1.48,50.17,6.91,61.91,11.48,15.57,6.05,26.67,13.27,38.34,24.94,11.67,11.67,18.89,22.78,24.94,38.34,4.57,11.75,10,29.41,11.48,61.92,1.6,35.16,1.94,45.71,1.94,134.74s-.34,99.58-1.94,134.74c-1.48,32.51-6.91,50.17-11.48,61.91-6.05,15.57-13.27,26.67-24.94,38.34-11.67,11.67-22.78,18.89-38.34,24.94-11.75,4.57-29.41,10-61.92,11.48-35.15,1.6-45.7,1.94-134.74,1.94s-99.58-.34-134.74-1.95c-32.51-1.48-50.17-6.91-61.91-11.48-15.57-6.05-26.67-13.27-38.34-24.94-11.67-11.67-18.89-22.78-24.94-38.34-4.57-11.75-10-29.41-11.48-61.92-1.6-35.16-1.94-45.71-1.94-134.74s.34-99.58,1.94-134.74c1.48-32.51,6.91-50.17,11.48-61.91,6.05-15.57,13.28-26.67,24.94-38.34,11.67-11.67,22.78-18.89,38.34-24.94,11.75-4.57,29.41-10,61.92-11.48,35.16-1.6,45.71-1.94,134.74-1.94"/>
      <path d="M333.44,444.59c-61.39,0-111.15-49.76-111.15-111.15s49.76-111.15,111.15-111.15,111.15,49.76,111.15,111.15-49.76,111.15-111.15,111.15ZM333.44,162.22c-94.57,0-171.23,76.66-171.23,171.23s76.66,171.23,171.23,171.23,171.23-76.66,171.23-171.23-76.66-171.23-171.23-171.23M551.45,155.45c0,22.1-17.92,40.01-40.01,40.01s-40.01-17.91-40.01-40.01,17.92-40.01,40.01-40.01,40.01,17.92,40.01,40.01"/>
    </g>
  </g>
</svg>