<?xml version="1.0" encoding="UTF-8"?>
<svg id="Layer_2" data-name="Layer 2" xmlns="http://www.w3.org/2000/svg" viewBox="0 0 454 151.66">
  <g id="Layer_1-2" data-name="Layer 1">
    <g>
      <path d="M390.02,113.16l-3.32-34.01c-.23-2.31,1.64-4.3,3.97-4.23l58.74,1.66c2.25.06,3.98,2.02,3.75,4.25l-3.3,32.35c-.2,1.97-1.87,3.47-3.86,3.47h-52.13c-2,0-3.67-1.51-3.86-3.49Z"/>
      <path d="M395.03,61.64l8.15-29.21c.59-2.13,2.86-3.33,4.97-2.63l43.19,14.33c1.58.53,2.65,2,2.65,3.66v25.45c0,2.45-2.26,4.28-4.67,3.78l-51.34-10.57c-2.2-.45-3.55-2.66-2.95-4.81Z"/>
      <path d="M374.74,0h-34.08c-2.23,0-4,1.87-3.87,4.08l5.87,102.63c.12,2.04,1.82,3.64,3.87,3.64h22.62c1.84,0,3.43-1.29,3.8-3.08l5.59-26.97c.05-.26.08-.52.08-.78V3.86c0-2.13-1.74-3.86-3.88-3.86Z"/>
      <path d="M320.48,44.19h-25.92c-2.14,0-3.88,1.73-3.88,3.86v54.48c0,.56-.12,1.11-.36,1.62l-13.42,28.83c-.98,2.1.11,4.57,2.31,5.29l34.7,11.31c1.98.64,4.11-.38,4.84-2.31l9.56-25.37c.19-.5.27-1.04.24-1.58l-4.2-72.5c-.12-2.04-1.82-3.64-3.87-3.64Z"/>
      <path d="M272.89,35.29l-23.27,4.63c-1.81.36-3.12,1.95-3.12,3.79v14.88c0,2.13-1.74,3.86-3.88,3.86h-20.9c-1.88,0-3.48-1.33-3.82-3.17l-2.84-15.56c-.34-1.84-1.94-3.17-3.82-3.17h-42.91c-2.14,0-3.88,1.73-3.88,3.86v52.01c0,2.13,1.74,3.86,3.88,3.86h47.27c1.71,0,3.22,1.12,3.72,2.75l4.34,14.41c.49,1.63,2,2.75,3.72,2.75h44.34c1.67,0,3.15-1.06,3.68-2.64l2.97-8.86c.1-.3.16-.6.19-.91l3.91-48.68c.03-.42,0-.84-.1-1.24l-4.95-19.71c-.5-2-2.5-3.25-4.53-2.85Z"/>
      <path d="M166.01,106.63l49.61-5.29c1.36-.15,2.7.43,3.52,1.52l3.62,4.81c.62.83.89,1.87.73,2.89l-5.19,34.4c-.28,1.89-1.92,3.29-3.84,3.29h-48.05c-2.14,0-3.88-1.73-3.88-3.86v-33.92c0-1.97,1.5-3.63,3.47-3.84Z"/>
      <path d="M225.65,145.93v-15.16c0-2.13,1.74-3.86,3.88-3.86h41.03c2.47,0,4.31,2.27,3.79,4.68l-3.29,15.16c-.39,1.78-1.97,3.04-3.79,3.04h-37.74c-2.14,0-3.88-1.73-3.88-3.86Z"/>
      <path d="M103.4,2.31h-19.53c-2.14,0-3.88,1.73-3.88,3.86v11.28c0,1.58-.97,3-2.44,3.58l-5.65,2.25c-1.76.7-2.76,2.58-2.35,4.42l3.01,13.46c.42,1.9,2.2,3.18,4.14,3.01l42.15-3.81c2-.18,3.53-1.85,3.53-3.85v-13.18c0-1.89-1.37-3.5-3.24-3.81l-7.34-1.22c-1.67-.28-2.96-1.6-3.2-3.26l-1.35-9.43c-.27-1.9-1.91-3.31-3.84-3.31Z"/>
      <path d="M145.34,45.72l-21.43,3.01c-1.92.27-3.36,1.91-3.36,3.85v15.32c0,2.14-1.75,3.88-3.9,3.88h-10.17c-1.59,0-3.02-.96-3.62-2.43l-1.78-4.38c-.79-1.93-2.97-2.9-4.94-2.2l-14.22,5.08c-2.54.91-5.22-.97-5.22-3.66v-6.47c0-2.35-2.07-4.16-4.41-3.85l-23.52,3.08c-1.94.25-3.39,1.9-3.39,3.85v31.71c0,2.14-1.75,3.88-3.9,3.88h-3.43c-1.82,0-3.39-1.25-3.8-3.01l-6.63-28.59c-.41-1.76-1.99-3.01-3.8-3.01H3.9c-2.24,0-4.03,1.88-3.9,4.11l3.49,59.38c.07,1.2.7,2.31,1.7,2.99l30.92,20.9c.59.4,1.27.63,1.98.67l33.61,1.83c1.72.09,3.3-.95,3.88-2.56l8.52-23.46c.56-1.54,2.03-2.56,3.67-2.56h15.05c1.71,0,3.09,1.38,3.09,3.08s1.38,3.08,3.09,3.08h36.85c2.16,0,3.9-1.74,3.9-3.88V49.56c0-2.36-2.1-4.17-4.45-3.85Z"/>
    </g>
  </g>
</svg>