<?xml version="1.0" encoding="UTF-8"?>
<svg id="Layer_2" data-name="Layer 2" xmlns="http://www.w3.org/2000/svg" viewBox="0 0 660 660">
  <defs>
    <style>
      .cls-1 {
        fill: none;
        stroke: #000;
        stroke-linecap: round;
        stroke-linejoin: round;
        stroke-width: 60px;
      }
    </style>
  </defs>
  <g id="Layer_1-2" data-name="Layer 1">
    <path class="cls-1" d="M413.33,146.67c24.57,4.79,48.96,15.63,66.67,33.33,17.7,17.7,28.54,42.09,33.33,66.67M430,30c51.05,5.67,96.99,30.37,133.33,66.67,36.34,36.3,60.93,82.29,66.67,133.33M629.98,479.22v90.32c.14,34.53-30.91,63.36-65.77,60.22-300.88.24-534.21-235.26-533.98-534.12-3.14-34.67,25.55-65.6,60.03-65.64h90.5c14.64-.14,28.83,5.03,39.94,14.56,31.56,27.09,51.86,119.03,44.05,155.58-6.1,28.54-34.86,48.5-54.42,68.02,42.95,75.38,105.48,137.79,181.01,180.65,19.56-19.52,39.56-48.23,68.15-54.31,36.68-7.81,129.21,12.52,156.19,44.3,9.57,11.27,14.65,25.66,14.29,40.42Z"/>
  </g>
</svg>